<?xml version="1.0" encoding="utf-8"?>
<!-- Generator: Adobe Illustrator 24.3.0, SVG Export Plug-In . SVG Version: 6.00 Build 0)  -->
<svg version="1.1" id="Слой_1" xmlns="http://www.w3.org/2000/svg" xmlns:xlink="http://www.w3.org/1999/xlink" x="0px" y="0px"
	 viewBox="0 0 841.89 595.28" style="enable-background:new 0 0 841.89 595.28;" xml:space="preserve">
<style type="text/css">
	.st0{fill:#4C2778;}
	.st1{fill:#3C3C3B;}
	.st2{fill:#FFFFFF;}
	.st3{fill:#63524B;}
</style>
<g>
	<g>
		<g>
			<g>
				<path class="st1" d="M83.93,318.72c-1.39-0.46-2.48-1.06-3.27-1.8l1.05-2.21c0.76,0.68,1.72,1.23,2.9,1.66
					c1.18,0.43,2.4,0.64,3.64,0.64c1.64,0,2.87-0.28,3.68-0.84c0.81-0.56,1.22-1.3,1.22-2.23c0-0.68-0.22-1.23-0.67-1.66
					c-0.44-0.43-0.99-0.75-1.64-0.98c-0.65-0.23-1.57-0.48-2.76-0.77c-1.49-0.36-2.7-0.72-3.61-1.08c-0.92-0.36-1.7-0.91-2.35-1.66
					c-0.65-0.75-0.98-1.75-0.98-3.02c0-1.06,0.28-2.01,0.84-2.86c0.56-0.85,1.4-1.53,2.54-2.04c1.13-0.51,2.54-0.77,4.22-0.77
					c1.17,0,2.32,0.15,3.46,0.45c1.13,0.3,2.11,0.74,2.92,1.3l-0.93,2.27c-0.83-0.53-1.72-0.93-2.66-1.2
					c-0.95-0.27-1.87-0.41-2.78-0.41c-1.61,0-2.81,0.29-3.61,0.88c-0.8,0.59-1.21,1.34-1.21,2.27c0,0.68,0.23,1.23,0.68,1.66
					c0.45,0.43,1.02,0.76,1.69,0.99c0.67,0.24,1.58,0.49,2.74,0.75c1.49,0.36,2.69,0.72,3.6,1.08c0.91,0.36,1.69,0.91,2.34,1.64
					c0.65,0.74,0.98,1.73,0.98,2.98c0,1.04-0.28,1.99-0.85,2.85c-0.57,0.86-1.43,1.54-2.58,2.04c-1.15,0.5-2.57,0.75-4.25,0.75
					C86.76,319.42,85.32,319.18,83.93,318.72z"/>
				<path class="st1" d="M119.03,301.81h-6.8v-2.47h16.41v2.47h-6.8v17.37h-2.81V301.81z"/>
				<path class="st1" d="M158.69,314.23h-10.54l-2.18,4.96h-2.92l8.98-19.84h2.81l9.01,19.84h-2.98L158.69,314.23z M157.69,311.96
					l-4.28-9.72l-4.28,9.72H157.69z"/>
				<path class="st1" d="M182.1,299.35h2.83v17.37h10.74v2.47H182.1V299.35z"/>
			</g>
			<g>
				<path class="st1" d="M386.6,299.35h2.83v17.37h10.74v2.47H386.6V299.35z"/>
				<path class="st1" d="M433.14,316.72v2.47h-14.4v-19.84h14v2.47h-11.17v6.09h9.95v2.41h-9.95v6.41H433.14z"/>
				<path class="st1" d="M466.7,309.16h2.72v7.74c-0.98,0.81-2.13,1.44-3.43,1.87c-1.3,0.43-2.66,0.65-4.08,0.65
					c-2,0-3.81-0.44-5.41-1.32c-1.61-0.88-2.87-2.09-3.78-3.63c-0.92-1.54-1.37-3.27-1.37-5.2c0-1.93,0.46-3.67,1.37-5.21
					c0.92-1.55,2.18-2.76,3.8-3.63c1.62-0.87,3.43-1.3,5.46-1.3c1.59,0,3.03,0.26,4.32,0.78c1.29,0.52,2.4,1.28,3.3,2.28l-1.76,1.76
					c-1.59-1.53-3.51-2.3-5.75-2.3c-1.51,0-2.87,0.33-4.07,0.98c-1.2,0.65-2.14,1.56-2.82,2.72c-0.68,1.16-1.02,2.47-1.02,3.93
					c0,1.44,0.34,2.73,1.02,3.9s1.62,2.07,2.82,2.73c1.2,0.66,2.55,0.99,4.04,0.99c1.78,0,3.33-0.43,4.65-1.28V309.16z"/>
				<path class="st1" d="M502.78,314.23h-10.54l-2.18,4.96h-2.92l8.98-19.84h2.81l9.01,19.84h-2.98L502.78,314.23z M501.79,311.96
					l-4.28-9.72l-4.28,9.72H501.79z"/>
				<path class="st1" d="M526.19,299.35h2.83v17.37h10.74v2.47h-13.58V299.35z"/>
				<path class="st1" d="M584.81,318.1c-1.61-0.88-2.87-2.09-3.78-3.64c-0.92-1.55-1.37-3.28-1.37-5.19c0-1.91,0.46-3.64,1.37-5.19
					c0.92-1.55,2.18-2.76,3.78-3.64c1.61-0.88,3.41-1.32,5.41-1.32c1.98,0,3.78,0.44,5.39,1.32c1.61,0.88,2.86,2.09,3.77,3.63
					c0.91,1.54,1.36,3.27,1.36,5.2c0,1.93-0.45,3.66-1.36,5.2c-0.91,1.54-2.16,2.75-3.77,3.63c-1.61,0.88-3.4,1.32-5.39,1.32
					C588.22,319.42,586.41,318.98,584.81,318.1z M594.15,315.9c1.16-0.66,2.08-1.57,2.75-2.73c0.67-1.16,1.01-2.46,1.01-3.9
					c0-1.44-0.34-2.73-1.01-3.9c-0.67-1.16-1.59-2.07-2.75-2.73c-1.16-0.66-2.47-0.99-3.92-0.99c-1.46,0-2.77,0.33-3.95,0.99
					c-1.18,0.66-2.11,1.57-2.78,2.73c-0.67,1.16-1.01,2.46-1.01,3.9c0,1.44,0.33,2.73,1.01,3.9c0.67,1.16,1.6,2.07,2.78,2.73
					c1.18,0.66,2.5,0.99,3.95,0.99C591.68,316.89,592.98,316.56,594.15,315.9z"/>
				<path class="st1" d="M623.21,301.81v6.92h9.95v2.44h-9.95v8.02h-2.83v-19.84h14v2.47H623.21z"/>
				<path class="st1" d="M656.52,301.81v6.92h9.95v2.44h-9.95v8.02h-2.83v-19.84h14v2.47H656.52z"/>
				<path class="st1" d="M686.98,299.35h2.83v19.84h-2.83V299.35z"/>
				<path class="st1" d="M714.58,318.1c-1.6-0.88-2.85-2.09-3.76-3.63c-0.91-1.54-1.36-3.27-1.36-5.2c0-1.93,0.45-3.66,1.36-5.2
					c0.91-1.54,2.16-2.75,3.77-3.63c1.61-0.88,3.4-1.32,5.39-1.32c1.55,0,2.97,0.26,4.25,0.78c1.28,0.52,2.38,1.29,3.29,2.31
					l-1.84,1.79c-1.49-1.57-3.35-2.35-5.58-2.35c-1.47,0-2.81,0.33-4,0.99c-1.19,0.66-2.12,1.57-2.79,2.73
					c-0.67,1.16-1.01,2.46-1.01,3.9c0,1.44,0.33,2.73,1.01,3.9c0.67,1.16,1.6,2.07,2.79,2.73c1.19,0.66,2.52,0.99,4,0.99
					c2.21,0,4.07-0.79,5.58-2.38l1.84,1.78c-0.91,1.02-2.01,1.8-3.3,2.32c-1.29,0.53-2.72,0.79-4.27,0.79
					C717.96,319.42,716.17,318.98,714.58,318.1z"/>
				<path class="st1" d="M761.27,316.72v2.47h-14.4v-19.84h14v2.47h-11.17v6.09h9.95v2.41h-9.95v6.41H761.27z"/>
			</g>
			<rect x="77.12" y="336.1" class="st1" width="123.07" height="1.38"/>
			<rect x="381.82" y="336.1" class="st1" width="382.95" height="1.38"/>
			<rect x="77.12" y="280.37" class="st1" width="123.07" height="1.38"/>
			<rect x="381.82" y="280.37" class="st1" width="382.95" height="1.38"/>
		</g>
		<g>
			<g>
				<g>
					<path class="st1" d="M384.52,372.01c-3.05,0-5.47-0.34-7.25-1.02c-1.77-0.67-3.27-1.95-4.45-3.81
						c-1.18-1.85-2.46-4.57-3.81-8.13l-61.25-165.97h-8.13l-6.93,19.27c3.16,1.26,5.33,1.85,7.5,2.81
						c6.11,2.82,10.68,6.2,14.46,10.49c4.89,5.54,7.36,11.84,7.36,18.71c0,7.47-3.26,11.96-5.98,14.42
						c-0.29,0.27-0.59,0.52-0.9,0.75l16.77,46.64h-33.91c0.67,0.42,1.34,0.82,2.01,1.24c0.67,0.42,1.33,0.86,1.98,1.3h30.68
						l13.47,36.86c0.51,1.52,1.1,3.38,1.79,5.59c0.67,2.2,1.26,4.36,1.77,6.48c0.51,2.12,0.76,3.94,0.76,5.46
						c0,3.22-1.1,5.52-3.3,6.86c-2.2,1.37-6.53,2.04-12.96,2.04h-7.63v2.54h62.02v-2.54H384.52z"/>
					<path class="st1" d="M286.89,229.82l-19.99,57.26c0.76,0.45,1.55,0.89,2.36,1.33l13.84-39.93c1.18-3.56,2.41-7.15,3.69-10.79
						c0.67-1.95,1.36-3.9,2.03-5.83c-0.02-0.05-0.06-0.08-0.09-0.13C288.17,231.04,287.56,230.4,286.89,229.82z"/>
				</g>
				<path class="st1" d="M275.48,372.01v2.54H218.9v-2.54h5.23c3.72,0,6.69-0.42,8.89-1.26c2.2-0.85,4.07-2.46,5.6-4.83
					c1.52-2.38,3.05-5.76,4.57-10.17l13.09-37.2l2.36,1l-8.85,25.02c-0.51,1.53-1.1,3.4-1.77,5.6c-0.68,2.2-1.28,4.36-1.79,6.48
					c-0.51,2.12-0.75,3.94-0.75,5.46c0,3.56,1.44,6.1,4.31,7.63c2.89,1.52,8.22,2.28,16.02,2.28H275.48z"/>
				<path class="st1" d="M320.28,354.17c0,9.66-2.08,18.04-6.22,25.15c-4.16,7.11-10.17,12.72-18.05,16.78
					c-7.87,4.06-17.57,6.09-29.09,6.09c-8.14,0-15.34-0.92-21.61-2.79c-6.28-1.86-11.53-4.41-15.76-7.62
					c-4.25-3.22-7.45-6.91-9.65-11.06c-0.25-0.47-0.49-0.94-0.71-1.43h56.29v2.37h-36.76c-1.64,0-2.68,1.81-1.82,3.2
					c2.54,4.1,5.75,7.34,9.67,9.71c5.59,3.39,12.7,5.08,21.36,5.08c11.85,0,20.99-3.42,27.43-10.29c6.44-6.86,9.66-16.73,9.66-29.62
					c0-7.28-1.36-13.42-4.06-18.42c-2.72-5-7.13-9.56-13.22-13.73c-6.11-4.14-14.08-8.67-23.89-13.61c-0.91-0.49-1.8-0.97-2.68-1.48
					c-0.84-0.44-1.66-0.91-2.48-1.38c-4.03-2.25-7.9-4.53-11.61-6.8c-5.25-3.22-9.82-6.83-13.72-10.79
					c-3.89-3.99-6.9-8.69-9.03-14.11c-2.11-5.44-3.17-11.86-3.17-19.33c0-9.14,2-17.03,5.97-23.64c3.98-6.59,9.66-11.73,17.03-15.37
					c7.37-3.64,16.04-5.45,26.06-5.45c7.65,0,14.53,0.96,20.59,2.87c0.79,0.25,1.58,0.52,2.33,0.79c0.25,0.1,0.49,0.18,0.7,0.27
					c3.31,1.28,6.26,2.77,8.88,4.46c2.72,1.76,5.07,3.76,7.01,5.96c3.81,4.33,5.72,9.11,5.72,14.36c0,3.46-0.91,6.28-2.75,8.42
					c-0.32,0.4-0.67,0.75-1.06,1.11c-2.55,2.3-5.94,3.44-10.17,3.44c0-13.56-2.55-23.47-7.63-29.75c-0.79-0.97-1.64-1.86-2.58-2.68
					c-0.67-0.6-1.36-1.14-2.1-1.64c-4.85-3.39-11.26-5.07-19.2-5.07c-7.13,0-13.27,1.49-18.44,4.45c-5.17,2.97-9.06,7.2-11.68,12.72
					c-2.63,5.5-3.94,12.32-3.94,20.45c0,7.62,1.39,13.93,4.19,18.93c2.78,5,7.01,9.41,12.7,13.22c3.37,2.27,7.21,4.6,11.49,7.01
					c0.79,0.44,1.58,0.87,2.4,1.33c2.23,1.22,4.6,2.47,7.08,3.74c3.89,2.03,7.65,4.08,11.29,6.14c1.49,0.84,2.95,1.68,4.4,2.53
					c2.4,1.41,4.76,2.84,7.05,4.28c7.03,4.41,12.75,9.83,17.17,16.26C318.06,335.71,320.28,344,320.28,354.17z"/>
			</g>
		</g>
	</g>
</g>
</svg>
